<svg xmlns="http://www.w3.org/2000/svg" viewBox="0 0 779.65 1037.84"><defs><style>.cls-1,.cls-2{fill:#5c8870;}.cls-1{fill-rule:evenodd;}</style></defs><g id="Ebene_2" data-name="Ebene 2"><g id="Layer_1" data-name="Layer 1"><path class="cls-1" d="M67.54,389.83c0-178.31,144.61-322.29,322.28-322.29s322.29,144,322.29,322.29c0,166.58-126.39,303.65-288.51,320.53v-68c124.73-16.52,221-123.28,221-252.52,0-141-114.41-254.75-254.75-254.75S135.08,248.78,135.08,389.83c0,104.68,63.15,194.62,153.43,233.8V544.71a184.9,184.9,0,0,1-83.74-154.88c0-102.59,83.24-185.07,185-185.07s185.07,82.48,185.07,185.07c0,90.67-65.21,166.11-151.29,182a186.58,186.58,0,0,1-67.55,0v206.4c225.87,19.36,423.6-157.71,423.6-388.38C779.65,174.25,604.84,0,389.82,0S0,174.25,0,389.83C0,570.08,122.34,721.75,288.51,766.36v-70.5C160.15,653.39,67.54,532.42,67.54,389.83Z"/><path class="cls-1" d="M390,474.3a84.64,84.64,0,1,0-84.64-84.64A84.8,84.8,0,0,0,390,474.3Z"/><path class="cls-2" d="M354.74,758.61h72.08v279.23H354.74Z"/></g></g></svg>